<svg width="953" height="143" viewBox="0 0 953 143" fill="none" xmlns="http://www.w3.org/2000/svg">
<path d="M336.532 1.34398C334.198 4.14497 328.129 4.92302 304.631 5.62327C279.345 6.32352 270.475 7.17938 259.66 9.98037C245.888 13.4038 237.563 18.4612 234.14 25.5414C231.728 30.4432 231.806 35.8896 234.295 39.313C236.007 41.725 240.598 43.7479 244.177 43.7479C246.9 43.7479 253.28 41.1025 253.28 40.0132C253.28 39.6242 252.424 38.5349 251.335 37.5235C250.246 36.512 249.156 34.5669 248.923 33.0886C247.445 25.0746 256.314 19.4726 274.443 16.9829C278.644 16.4382 282.224 16.127 282.379 16.2826C282.613 16.516 282.224 18.1499 281.601 19.8617C274.988 38.3793 269.152 88.4082 271.175 109.493C272.031 118.83 273.198 121.631 277.477 124.51C279.812 126.144 280.823 126.299 286.192 126.066C289.459 125.833 292.338 125.521 292.572 125.366C292.727 125.132 292.183 122.72 291.327 119.997C285.414 100.935 286.114 61.0985 293.038 23.6741L294.672 14.9599H307.744C314.98 14.9599 321.437 14.7265 322.215 14.4153C323.46 13.9484 323.538 14.7265 323.071 25.9305C322.838 32.5439 321.826 44.2147 320.893 51.9175C318.636 70.7464 318.247 109.338 320.348 113.928C322.138 117.974 324.939 119.53 330.385 119.608C332.797 119.608 335.053 119.375 335.287 119.141C335.598 118.908 335.209 115.407 334.509 111.361C333.653 106.926 333.108 99.6899 333.108 93.1543C333.03 82.7284 333.108 82.1059 335.131 78.2157C337.465 73.9364 345.791 65.1444 346.724 66.078C346.958 66.4671 347.658 68.4122 348.125 70.5907C349.525 76.2705 354.583 86.5408 359.64 94.1658C365.709 103.191 376.757 114.24 383.059 117.585C389.517 120.931 392.318 120.542 397.064 115.64C401.421 111.05 401.266 109.805 396.364 107.548C382.359 101.246 368.198 87.0077 360.34 71.2132C357.695 65.9224 355.438 59.5424 356.061 59.0755C356.216 58.9199 362.519 54.485 369.988 49.1943C384.849 38.8462 389.05 35.5005 392.629 31.7659C395.742 28.4202 398.231 23.1295 397.687 20.8731C396.986 18.1499 394.263 15.0377 390.918 13.4038L387.961 11.8477L385.238 15.8158C378.08 26.3973 367.498 37.0566 353.26 47.7938C348.981 50.9838 342.834 56.1189 339.644 59.1534C336.454 62.1878 333.731 64.5219 333.575 64.4441C333.419 64.2885 333.886 56.8192 334.664 47.8716C335.365 39.0018 335.987 27.4088 336.065 22.1958L336.143 12.7036L338.71 12.2367C344.468 11.1475 346.024 6.32352 341.9 2.43325C339.177 -0.134325 337.932 -0.367741 336.532 1.34398Z" fill="#111111"/>
<path d="M181.311 10.2915C173.609 10.914 172.053 11.2252 164.583 13.5593C153.302 17.1384 142.798 25.1523 138.83 33.2441C137.274 36.5119 136.962 38.3014 136.962 44.1368C136.962 49.9722 137.274 51.684 138.83 54.5628C142.331 61.1762 149.256 67.4785 158.203 72.1468L162.405 74.3253L157.27 77.0485C150.034 80.861 145.677 84.9847 142.876 90.5866C136.184 103.814 143.265 116.729 160.382 122.642C179.444 129.334 202.397 125.132 215.624 112.606C218.969 109.493 219.825 108.171 219.825 106.226C219.825 102.88 218.036 101.557 215.779 103.191C209.633 107.704 203.175 111.516 198.662 113.306C182.012 119.919 160.926 115.562 155.247 104.358C153.302 100.546 153.224 94.2435 155.169 89.9642C156.881 86.1517 162.094 81.5612 166.684 79.8495C169.952 78.6046 170.497 78.6046 176.098 79.9273C179.678 80.7832 185.124 81.4056 189.637 81.4056C196.561 81.4834 197.262 81.3278 199.207 79.5383C202.085 76.8151 201.619 73.5473 198.04 71.3687C195.705 70.046 193.994 69.8126 186.758 69.8126C182.089 69.8126 176.721 70.1238 174.931 70.4351L171.664 71.1353L165.517 64.9887C158.437 57.9084 155.324 52.3842 154.702 45.4595C153.613 33.1663 161.393 23.4406 175.865 19.1613C179.211 18.1499 183.179 17.7608 189.87 17.7608C204.886 17.7608 213.523 20.873 221.615 29.1204C226.439 34.1 228.695 34.5668 229.629 30.8321C232.507 19.3947 206.676 8.42419 181.311 10.2915Z" fill="#111111"/>
<path d="M701.675 10.9918C694.517 14.2596 688.837 22.896 685.024 36.2008C682.924 43.281 678.878 67.5563 678.878 72.6915C678.878 73.9364 678.333 75.1034 677.477 75.5703C675.299 76.7373 664.25 78.6047 656.392 79.2271L649.234 79.7718L649.701 81.7947C651.257 87.8635 657.403 90.1199 668.996 88.875C672.809 88.4081 676.155 88.2525 676.388 88.4081C677.088 89.1862 672.809 106.381 670.397 112.761L667.907 119.141L663.472 119.608C661.06 119.919 657.715 120.464 656.159 120.853C653.591 121.475 653.202 121.942 653.202 123.81C653.202 128.089 658.571 132.446 663.939 132.446C667.596 132.446 673.042 130.19 675.61 127.7L678.1 125.288L693.038 130.501C720.737 140.071 722.371 140.46 733.341 140.538C741.978 140.616 743.456 140.382 746.724 138.826C753.182 135.636 754.271 129.178 749.292 123.265L747.346 120.931L742.834 122.331C729.607 126.455 713.812 126.455 693.427 122.331C682.612 120.075 680.512 119.452 680.901 118.441C684.246 110.738 686.658 101.479 689.304 86.3852C689.77 83.8954 690.393 83.1952 694.205 81.0166C698.718 78.4491 705.954 72.9249 709.066 69.7349C712.567 66.1558 718.636 57.5194 720.815 53.1623C729.529 35.7339 728.44 17.4497 718.247 11.4586C714.046 8.96888 706.654 8.81327 701.675 10.9918ZM714.979 18.8502C717.469 21.8846 718.092 25.308 717.391 32.2327C716.38 42.8142 712.645 51.4506 705.798 59.0755C702.531 62.6546 693.661 69.4236 692.105 69.4236C690.782 69.4236 695.917 38.9239 698.874 29.5095C701.286 21.729 705.798 16.516 710.155 16.516C712.334 16.516 713.423 17.0606 714.979 18.8502Z" fill="#111111"/>
<path d="M455.965 12.7035C440.404 14.6486 428.966 32.6216 430.056 53.4735C430.756 66.7004 436.591 74.9477 445.306 75.0255C449.04 75.0255 451.841 73.625 453.786 70.7462C456.665 66.5448 456.432 64.833 452.931 63.5882C448.885 62.1877 444.372 57.5971 442.349 52.851C440.404 48.3383 440.015 38.7683 441.571 33.9443C446.239 19.7837 461.567 15.5045 471.682 25.5413C477.984 31.9214 481.719 43.3588 482.574 58.9976C483.897 85.7627 475.805 106.615 460.944 114.551C456.899 116.651 454.876 117.196 450.052 117.507C441.338 117.974 436.98 116.34 431.067 110.349C425.543 104.825 422.353 98.6006 419.708 88.4859C418.074 82.2614 417.84 79.8495 417.918 66.3113C417.996 53.24 418.229 50.2834 419.708 44.9149C421.497 38.1458 425.31 29.5094 427.41 27.1753C428.655 25.7748 428.655 25.6191 426.866 24.2187C422.82 20.873 416.751 23.285 412.238 30.0541C403.991 42.2695 400.879 73.625 406.092 91.4425C408.971 101.09 412.005 106.692 417.84 112.839C426.321 121.864 435.658 125.755 448.962 125.755C455.109 125.832 457.988 125.443 462.501 123.887C474.327 120.075 483.897 111.516 490.044 99.3786C493.856 91.7537 495.957 83.8175 496.968 72.458C497.746 64.1328 497.669 61.254 496.657 53.7847C494.556 39.1573 490.588 29.7428 483.275 22.1179C476.194 14.6486 466.546 11.3808 455.965 12.7035Z" fill="#111111"/>
<path d="M893.776 13.0146C876.27 16.2046 859.075 25.3856 860.476 30.7542C861.254 33.9442 863.043 33.8664 867.4 30.5986C871.446 27.5642 877.593 24.2186 881.016 23.1293C882.65 22.6625 882.728 22.7403 882.106 24.0629C878.76 30.2874 873.625 48.7272 870.357 65.9222C866.7 85.4514 866.078 91.987 866 110.271C866 127.311 866 127.388 868.101 131.901C869.968 135.791 870.746 136.647 873.858 138.048C876.893 139.37 878.449 139.526 882.65 139.137C885.373 138.904 887.941 138.437 888.252 138.126C888.563 137.737 888.174 135.402 887.318 132.913C886.463 130.345 884.984 123.498 884.128 117.741C882.806 108.637 882.65 104.669 882.961 89.6529C883.584 65.2998 886.385 48.1048 892.609 31.2988C895.255 24.2186 895.332 23.8295 894.165 21.7288C892.998 19.7058 892.998 19.5502 894.243 19.0056C894.943 18.6944 900.468 18.461 906.459 18.461C916.729 18.461 917.585 18.6166 922.02 20.6395C930.734 24.6854 934.391 29.8983 934.313 38.3013C934.313 45.3038 932.057 49.7387 924.821 57.0524C916.573 65.222 912.994 67.2449 905.836 67.4005C898.834 67.5561 895.721 69.19 896.11 72.3801C896.5 75.8813 899.456 76.8928 905.914 75.6479C908.948 75.1033 913.85 74.792 917.04 75.0255C928.944 75.8035 934.935 81.8723 934.78 92.9207C934.702 101.713 930.812 108.326 923.654 111.827C916.184 115.484 909.571 115.329 896.033 110.972C894.243 110.427 894.165 110.505 894.632 113.461C895.332 117.585 899.845 121.786 905.369 123.498C910.193 124.899 920.386 125.132 925.832 123.887C933.613 122.175 941.16 117.04 944.583 111.127C950.03 101.635 948.473 88.797 940.615 79.6938C937.503 75.9591 928.711 71.2908 923.498 70.5127L919.919 69.9681L926.844 66.7003C943.338 58.8419 952.208 48.4938 952.286 37.1342C952.286 25.1522 941.471 16.2046 923.265 13.0146C915.328 11.6141 901.479 11.6141 893.776 13.0146Z" fill="#111111"/>
<path d="M53.5557 13.4817C49.7432 14.571 42.0405 22.1959 36.9054 30.0543C22.2001 52.2288 4.77174 97.9005 1.11489 123.81C-0.596825 135.792 1.58172 139.06 12.6301 141.394C15.5089 142.016 18.1543 142.561 18.3877 142.561C18.6211 142.561 18.6989 139.293 18.4655 135.325C17.6874 119.453 25.0011 88.1749 36.6719 57.9086C40.7956 47.2492 47.7203 33.4777 51.0659 29.5096C55.1118 24.6079 59.3911 23.2852 60.7138 26.4752C61.6475 28.8094 61.1028 49.739 59.4689 70.9799C57.9128 91.9095 57.9906 97.2781 60.0914 105.603C63.6704 120.231 74.0185 124.51 81.3322 114.473C83.8998 110.894 88.2569 100.001 95.7262 78.3714C101.951 60.4762 103.507 56.3525 106.308 50.5949C108.953 45.3819 109.965 44.5261 111.443 46.4712C112.999 48.6497 112.688 57.9864 110.431 81.2502C107.553 110.972 108.175 122.02 113.31 127.544C114.244 128.478 115.8 129.412 116.811 129.645C119.379 130.345 125.448 128.789 128.171 126.922C130.272 125.366 130.35 125.21 129.26 123.576C127.082 120.542 124.981 115.329 124.125 110.816C123.269 106.226 121.635 76.5819 122.18 75.6482C122.802 74.6367 122.725 41.0248 122.18 38.6907C121.091 34.4892 118.056 29.354 116.111 28.2647C113.466 26.8643 110.431 27.7201 107.786 30.5211C103.273 35.345 99.3831 44.2148 84.4444 83.8178C80.0873 95.3329 76.3527 104.981 76.1971 105.136C75.5746 105.837 75.03 104.514 73.9407 99.0676C73.0848 95.0995 72.5402 84.5958 71.9956 63.744C71.2175 32.3106 70.5173 26.3196 67.0938 19.7062C64.215 14.0264 59.2355 11.77 53.5557 13.4817Z" fill="#111111"/>
<path d="M768.74 13.7146C764.616 15.5041 764.305 16.4378 765.706 21.962C767.106 27.4084 767.028 29.0423 764.383 57.7524C761.271 90.8975 762.671 107.159 769.518 118.907C772.164 123.498 777.765 128.166 781.967 129.333C786.791 130.656 793.638 130.034 798.228 127.777C806.865 123.498 817.291 111.205 824.604 96.8885C826.861 92.4536 828.806 88.8746 829.039 88.8746C829.273 88.8746 829.584 91.5978 829.739 94.8656C829.973 101.946 831.529 110.738 833.241 114.784C835.886 121.164 843.511 122.486 851.214 117.896C852.692 117.04 852.692 116.962 851.058 114.006C846.545 105.914 843.822 91.9868 843.278 73.3135C842.655 54.5624 844.289 41.1799 848.957 24.8408C850.436 19.8612 850.747 17.6827 850.124 17.0602C849.658 16.5934 847.246 16.0488 844.756 15.8932C840.554 15.5819 839.932 15.7376 837.676 17.7605C834.875 20.4059 833.785 24.6074 831.762 41.0243C829.195 62.0317 826.549 71.7574 819.625 86.4626C803.597 120.23 782.589 128.944 777.688 103.813C775.898 95.0212 777.065 71.135 780.333 49.5829C784.301 23.2069 783.99 15.8932 778.777 13.4812C776.209 12.3141 771.619 12.4697 768.74 13.7146Z" fill="#111111"/>
<path d="M602.628 15.1153C583.099 17.8385 565.904 30.2874 557.112 48.027C548.475 65.222 547.853 83.5062 555.244 98.6783C565.515 119.53 591.969 130.812 616.322 124.665C628.304 121.631 642.62 112.994 645.81 106.692C647.444 103.658 647.288 100.079 645.421 98.2114C643.32 96.1107 643.009 96.1885 640.83 99.3785C637.718 103.969 629.704 110.894 624.336 113.617C616.788 117.429 607.919 118.985 599.982 117.818C592.358 116.729 586.911 114.162 581.309 109.026C568.004 96.8887 564.348 77.1262 571.428 56.3522C574.462 47.7158 577.808 42.1916 584.344 35.6559C593.447 26.3971 603.951 21.9622 616.477 21.9622C624.725 21.9622 628.304 23.0515 632.35 26.6305C635.306 29.2759 635.617 29.8205 635.929 34.1776C636.24 38.1457 635.929 39.7018 634.061 43.7477C632.427 47.3267 632.116 48.8828 632.739 49.8943C633.983 51.9173 636.94 53.0843 640.83 53.0843C645.421 53.0843 647.599 50.9058 648.455 45.3816C651.723 24.9188 630.871 11.0694 602.628 15.1153Z" fill="#111111"/>
<path d="M519.687 90.0418C518.364 90.742 516.808 92.1425 516.263 93.154C513.929 97.5111 518.364 105.214 523.266 105.214C530.735 105.214 536.882 94.3211 531.357 90.742C528.556 88.8747 522.643 88.5635 519.687 90.0418Z" fill="#111111"/>
</svg>
