<svg width="952" height="143" viewBox="0 0 952 143" fill="none" xmlns="http://www.w3.org/2000/svg">
<path d="M335.938 1.34398C333.604 4.14497 327.535 4.92302 304.038 5.62327C278.751 6.32352 269.882 7.17938 259.067 9.98037C245.295 13.4038 236.97 18.4612 233.547 25.5414C231.135 30.4432 231.212 35.8896 233.702 39.313C235.414 41.725 240.004 43.7479 243.583 43.7479C246.307 43.7479 252.687 41.1025 252.687 40.0132C252.687 39.6242 251.831 38.5349 250.742 37.5235C249.652 36.512 248.563 34.5669 248.33 33.0886C246.851 25.0746 255.721 19.4726 273.85 16.9829C278.051 16.4382 281.63 16.127 281.786 16.2826C282.019 16.516 281.63 18.1499 281.008 19.8617C274.394 38.3793 268.559 88.4082 270.582 109.493C271.438 118.83 272.605 121.631 276.884 124.51C279.218 126.144 280.23 126.299 285.598 126.066C288.866 125.833 291.745 125.521 291.978 125.366C292.134 125.132 291.589 122.72 290.733 119.997C284.82 100.935 285.521 61.0985 292.445 23.6741L294.079 14.9599H307.15C314.386 14.9599 320.844 14.7265 321.622 14.4153C322.867 13.9484 322.945 14.7265 322.478 25.9305C322.245 32.5439 321.233 44.2147 320.3 51.9175C318.043 70.7464 317.654 109.338 319.755 113.928C321.544 117.974 324.345 119.53 329.792 119.608C332.204 119.608 334.46 119.375 334.694 119.141C335.005 118.908 334.616 115.407 333.915 111.361C333.06 106.926 332.515 99.6899 332.515 93.1543C332.437 82.7284 332.515 82.1059 334.538 78.2157C336.872 73.9364 345.197 65.1444 346.131 66.078C346.364 66.4671 347.065 68.4122 347.531 70.5907C348.932 76.2705 353.989 86.5408 359.047 94.1658C365.115 103.191 376.164 114.24 382.466 117.585C388.924 120.931 391.725 120.542 396.471 115.64C400.828 111.05 400.672 109.805 395.771 107.548C381.766 101.246 367.605 87.0077 359.747 71.2132C357.101 65.9224 354.845 59.5424 355.468 59.0755C355.623 58.9199 361.925 54.485 369.395 49.1943C384.256 38.8462 388.457 35.5005 392.036 31.7659C395.148 28.4202 397.638 23.1295 397.093 20.8731C396.393 18.1499 393.67 15.0377 390.324 13.4038L387.368 11.8477L384.645 15.8158C377.486 26.3973 366.905 37.0566 352.667 47.7938C348.387 50.9838 342.241 56.1189 339.051 59.1534C335.861 62.1878 333.137 64.5219 332.982 64.4441C332.826 64.2885 333.293 56.8192 334.071 47.8716C334.771 39.0018 335.394 27.4088 335.472 22.1958L335.549 12.7036L338.117 12.2367C343.875 11.1475 345.431 6.32352 341.307 2.43325C338.584 -0.134325 337.339 -0.367741 335.938 1.34398Z" fill="white"/>
<path d="M180.718 10.2915C173.015 10.914 171.459 11.2252 163.99 13.5593C152.708 17.1384 142.204 25.1523 138.236 33.2441C136.68 36.5119 136.369 38.3014 136.369 44.1368C136.369 49.9722 136.68 51.684 138.236 54.5628C141.737 61.1762 148.662 67.4785 157.61 72.1468L161.811 74.3253L156.676 77.0485C149.44 80.861 145.083 84.9847 142.282 90.5866C135.591 103.814 142.671 116.729 159.788 122.642C178.85 129.334 201.803 125.132 215.03 112.606C218.375 109.493 219.231 108.171 219.231 106.226C219.231 102.88 217.442 101.557 215.185 103.191C209.039 107.704 202.581 111.516 198.068 113.306C181.418 119.919 160.333 115.562 154.653 104.358C152.708 100.546 152.63 94.2435 154.575 89.9642C156.287 86.1517 161.5 81.5612 166.09 79.8495C169.358 78.6046 169.903 78.6046 175.505 79.9273C179.084 80.7832 184.53 81.4056 189.043 81.4056C195.968 81.4834 196.668 81.3278 198.613 79.5383C201.492 76.8151 201.025 73.5473 197.446 71.3687C195.112 70.046 193.4 69.8126 186.164 69.8126C181.496 69.8126 176.127 70.1238 174.338 70.4351L171.07 71.1353L164.923 64.9887C157.843 57.9084 154.731 52.3842 154.108 45.4595C153.019 33.1663 160.8 23.4406 175.271 19.1613C178.617 18.1499 182.585 17.7608 189.276 17.7608C204.293 17.7608 212.929 20.873 221.021 29.1204C225.845 34.1 228.101 34.5668 229.035 30.8321C231.914 19.3947 206.082 8.42419 180.718 10.2915Z" fill="white"/>
<path d="M701.08 10.9918C693.922 14.2596 688.243 22.896 684.43 36.2008C682.329 43.281 678.283 67.5563 678.283 72.6915C678.283 73.9364 677.739 75.1034 676.883 75.5703C674.704 76.7373 663.656 78.6047 655.798 79.2271L648.64 79.7718L649.106 81.7947C650.663 87.8635 656.809 90.1199 668.402 88.875C672.215 88.4081 675.56 88.2525 675.794 88.4081C676.494 89.1862 672.215 106.381 669.803 112.761L667.313 119.141L662.878 119.608C660.466 119.919 657.12 120.464 655.564 120.853C652.997 121.475 652.608 121.942 652.608 123.81C652.608 128.089 657.976 132.446 663.345 132.446C667.002 132.446 672.448 130.19 675.016 127.7L677.505 125.288L692.444 130.501C720.143 140.071 721.777 140.46 732.747 140.538C741.384 140.616 742.862 140.382 746.13 138.826C752.588 135.636 753.677 129.178 748.697 123.265L746.752 120.931L742.239 122.331C729.013 126.455 713.218 126.455 692.833 122.331C682.018 120.075 679.917 119.452 680.306 118.441C683.652 110.738 686.064 101.479 688.709 86.3852C689.176 83.8954 689.799 83.1952 693.611 81.0166C698.124 78.4491 705.36 72.9249 708.472 69.7349C711.973 66.1558 718.042 57.5194 720.221 53.1623C728.935 35.7339 727.846 17.4497 717.653 11.4586C713.452 8.96888 706.06 8.81327 701.08 10.9918ZM714.385 18.8502C716.875 21.8846 717.497 25.308 716.797 32.2327C715.786 42.8142 712.051 51.4506 705.204 59.0755C701.936 62.6546 693.067 69.4236 691.51 69.4236C690.188 69.4236 695.323 38.9239 698.279 29.5095C700.691 21.729 705.204 16.516 709.561 16.516C711.74 16.516 712.829 17.0606 714.385 18.8502Z" fill="white"/>
<path d="M455.37 12.7035C439.809 14.6486 428.371 32.6216 429.461 53.4735C430.161 66.7004 435.996 74.9477 444.71 75.0255C448.445 75.0255 451.246 73.625 453.191 70.7462C456.07 66.5448 455.837 64.833 452.335 63.5882C448.289 62.1877 443.777 57.5971 441.754 52.851C439.809 48.3383 439.42 38.7683 440.976 33.9443C445.644 19.7837 460.972 15.5045 471.086 25.5413C477.389 31.9214 481.123 43.3588 481.979 58.9976C483.302 85.7627 475.21 106.615 460.349 114.551C456.303 116.651 454.28 117.196 449.457 117.507C440.742 117.974 436.385 116.34 430.472 110.349C424.948 104.825 421.758 98.6006 419.112 88.4859C417.479 82.2614 417.245 79.8495 417.323 66.3113C417.401 53.24 417.634 50.2834 419.112 44.9149C420.902 38.1458 424.714 29.5094 426.815 27.1753C428.06 25.7748 428.06 25.6191 426.271 24.2187C422.225 20.873 416.156 23.285 411.643 30.0541C403.396 42.2695 400.284 73.625 405.497 91.4425C408.375 101.09 411.41 106.692 417.245 112.839C425.726 121.864 435.063 125.755 448.367 125.755C454.514 125.832 457.393 125.443 461.905 123.887C473.732 120.075 483.302 111.516 489.448 99.3786C493.261 91.7537 495.362 83.8175 496.373 72.458C497.151 64.1328 497.073 61.254 496.062 53.7847C493.961 39.1573 489.993 29.7428 482.679 22.1179C475.599 14.6486 465.951 11.3808 455.37 12.7035Z" fill="white"/>
<path d="M893.182 13.0146C875.676 16.2046 858.481 25.3856 859.881 30.7542C860.659 33.9442 862.449 33.8664 866.806 30.5986C870.852 27.5642 876.999 24.2186 880.422 23.1293C882.056 22.6625 882.134 22.7403 881.511 24.0629C878.166 30.2874 873.03 48.7272 869.763 65.9222C866.106 85.4514 865.483 91.987 865.406 110.271C865.406 127.311 865.406 127.388 867.506 131.901C869.374 135.791 870.152 136.647 873.264 138.048C876.298 139.37 877.854 139.526 882.056 139.137C884.779 138.904 887.347 138.437 887.658 138.126C887.969 137.737 887.58 135.402 886.724 132.913C885.868 130.345 884.39 123.498 883.534 117.741C882.212 108.637 882.056 104.669 882.367 89.6529C882.99 65.2998 885.791 48.1048 892.015 31.2988C894.66 24.2186 894.738 23.8295 893.571 21.7288C892.404 19.7058 892.404 19.5502 893.649 19.0056C894.349 18.6944 899.873 18.461 905.864 18.461C916.135 18.461 916.991 18.6166 921.425 20.6395C930.14 24.6854 933.796 29.8983 933.719 38.3013C933.719 45.3038 931.462 49.7387 924.226 57.0524C915.979 65.222 912.4 67.2449 905.242 67.4005C898.239 67.5561 895.127 69.19 895.516 72.3801C895.905 75.8813 898.862 76.8928 905.32 75.6479C908.354 75.1033 913.256 74.792 916.446 75.0255C928.35 75.8035 934.341 81.8723 934.186 92.9207C934.108 101.713 930.217 108.326 923.059 111.827C915.59 115.484 908.977 115.329 895.438 110.972C893.649 110.427 893.571 110.505 894.038 113.461C894.738 117.585 899.251 121.786 904.775 123.498C909.599 124.899 919.792 125.132 925.238 123.887C933.018 122.175 940.566 117.04 943.989 111.127C949.435 101.635 947.879 88.797 940.021 79.6938C936.909 75.9591 928.117 71.2908 922.904 70.5127L919.325 69.9681L926.249 66.7003C942.744 58.8419 951.614 48.4938 951.692 37.1342C951.692 25.1522 940.877 16.2046 922.67 13.0146C914.734 11.6141 900.885 11.6141 893.182 13.0146Z" fill="white"/>
<path d="M52.9615 13.4817C49.149 14.571 41.4463 22.1959 36.3111 30.0543C21.6059 52.2288 4.17751 97.9005 0.520654 123.81C-1.19106 135.792 0.987487 139.06 12.0358 141.394C14.9146 142.016 17.56 142.561 17.7934 142.561C18.0269 142.561 18.1047 139.293 17.8712 135.325C17.0932 119.453 24.4069 88.1749 36.0777 57.9086C40.2014 47.2492 47.1261 33.4777 50.4717 29.5096C54.5176 24.6079 58.7969 23.2852 60.1196 26.4752C61.0532 28.8094 60.5086 49.739 58.8747 70.9799C57.3186 91.9095 57.3964 97.2781 59.4971 105.603C63.0762 120.231 73.4243 124.51 80.738 114.473C83.3056 110.894 87.6627 100.001 95.132 78.3714C101.356 60.4762 102.913 56.3525 105.713 50.5949C108.359 45.3819 109.37 44.5261 110.849 46.4712C112.405 48.6497 112.094 57.9864 109.837 81.2502C106.958 110.972 107.581 122.02 112.716 127.544C113.65 128.478 115.206 129.412 116.217 129.645C118.785 130.345 124.854 128.789 127.577 126.922C129.678 125.366 129.755 125.21 128.666 123.576C126.488 120.542 124.387 115.329 123.531 110.816C122.675 106.226 121.041 76.5819 121.586 75.6482C122.208 74.6367 122.13 41.0248 121.586 38.6907C120.497 34.4892 117.462 29.354 115.517 28.2647C112.872 26.8643 109.837 27.7201 107.192 30.5211C102.679 35.345 98.7888 44.2148 83.8502 83.8178C79.4931 95.3329 75.7584 104.981 75.6028 105.136C74.9804 105.837 74.4357 104.514 73.3465 99.0676C72.4906 95.0995 71.946 84.5958 71.4013 63.744C70.6233 32.3106 69.923 26.3196 66.4996 19.7062C63.6208 14.0264 58.6413 11.77 52.9615 13.4817Z" fill="white"/>
<path d="M768.146 13.7146C764.023 15.5041 763.711 16.4378 765.112 21.962C766.512 27.4084 766.435 29.0423 763.789 57.7524C760.677 90.8975 762.077 107.159 768.924 118.907C771.57 123.498 777.172 128.166 781.373 129.333C786.197 130.656 793.044 130.034 797.635 127.777C806.271 123.498 816.697 111.205 824.011 96.8885C826.267 92.4536 828.212 88.8746 828.445 88.8746C828.679 88.8746 828.99 91.5978 829.146 94.8656C829.379 101.946 830.935 110.738 832.647 114.784C835.292 121.164 842.917 122.486 850.62 117.896C852.098 117.04 852.098 116.962 850.464 114.006C845.952 105.914 843.228 91.9868 842.684 73.3135C842.061 54.5624 843.695 41.1799 848.364 24.8408C849.842 19.8612 850.153 17.6827 849.531 17.0602C849.064 16.5934 846.652 16.0488 844.162 15.8932C839.961 15.5819 839.338 15.7376 837.082 17.7605C834.281 20.4059 833.192 24.6074 831.169 41.0243C828.601 62.0317 825.956 71.7574 819.031 86.4626C803.003 120.23 781.996 128.944 777.094 103.813C775.304 95.0212 776.471 71.135 779.739 49.5829C783.707 23.2069 783.396 15.8932 778.183 13.4812C775.616 12.3141 771.025 12.4697 768.146 13.7146Z" fill="white"/>
<path d="M602.034 15.1153C582.504 17.8385 565.309 30.2874 556.517 48.027C547.881 65.222 547.259 83.5062 554.65 98.6783C564.92 119.53 591.374 130.812 615.727 124.665C627.709 121.631 642.026 112.994 645.216 106.692C646.85 103.658 646.694 100.079 644.827 98.2114C642.726 96.1107 642.415 96.1885 640.236 99.3785C637.124 103.969 629.11 110.894 623.741 113.617C616.194 117.429 607.324 118.985 599.388 117.818C591.763 116.729 586.317 114.162 580.715 109.026C567.41 96.8887 563.753 77.1262 570.834 56.3522C573.868 47.7158 577.214 42.1916 583.749 35.6559C592.853 26.3971 603.356 21.9622 615.883 21.9622C624.13 21.9622 627.709 23.0515 631.755 26.6305C634.712 29.2759 635.023 29.8205 635.334 34.1776C635.646 38.1457 635.334 39.7018 633.467 43.7477C631.833 47.3267 631.522 48.8828 632.144 49.8943C633.389 51.9173 636.346 53.0843 640.236 53.0843C644.827 53.0843 647.005 50.9058 647.861 45.3816C651.129 24.9188 630.277 11.0694 602.034 15.1153Z" fill="white"/>
<path d="M519.093 90.0418C517.771 90.742 516.215 92.1425 515.67 93.154C513.336 97.5111 517.771 105.214 522.672 105.214C530.142 105.214 536.288 94.3211 530.764 90.742C527.963 88.8747 522.05 88.5635 519.093 90.0418Z" fill="white"/>
</svg>
