<svg width="624" height="325" viewBox="0 0 624 325" fill="none" xmlns="http://www.w3.org/2000/svg">
<path d="M339.684 1.2913L338.46 2.26027L338.307 68.2523C338.256 104.512 338.307 134.703 338.46 135.366C339.225 138.528 343.05 139.548 345.702 137.304L347.13 136.08L347.283 71.3632C347.385 35.8172 347.283 5.72816 347.13 4.5042C346.926 3.28024 346.365 1.90328 345.702 1.3423C344.325 0.0163354 341.265 0.0163354 339.684 1.2913Z" fill="#111111"/>
<path d="M323.824 20.9765C297.764 24.5464 274.049 34.6951 253.038 51.2186C247.173 55.8595 235.648 67.3341 230.956 73.2499C213.565 95.1283 202.397 122.616 200.204 149.238L199.847 153.318H204.233H208.618L208.873 151.125C209.026 149.952 209.281 147.606 209.434 145.923C210.403 136.284 214.585 120.678 218.869 110.683C238.3 65.3452 279.047 35.0011 328.159 29.3403L333.616 28.7283V24.4954V20.2116L331.219 20.2626C329.842 20.3136 326.527 20.6195 323.824 20.9765Z" fill="#111111"/>
<path d="M351.974 24.4445V28.6773L359.012 29.5953C385.582 32.9612 409.245 43.2629 429.492 60.2964C438.671 67.9971 449.891 80.7977 456.113 90.5894C466.517 106.909 473.554 126.492 475.9 145.413C476.206 147.912 476.563 150.768 476.716 151.686L476.971 153.369L481.153 153.216L485.335 153.063L485.182 150.003C484.468 133.887 478.45 113.437 469.475 96.2503C452.39 63.5093 421.638 37.653 386.755 26.6374C376.606 23.4245 360.032 20.2116 353.759 20.2116H351.974V24.4445Z" fill="#111111"/>
<path d="M327.138 92.9355C319.285 94.6185 310.309 98.4944 303.271 103.084C297.814 106.705 289.196 114.865 285.116 120.322C281.597 125.116 277.109 133.683 275.222 139.293C273.59 144.189 271.754 152.196 272.162 152.859C272.366 153.114 274.304 153.318 276.497 153.318C280.985 153.318 280.577 153.726 281.597 148.473C282.464 144.189 284.402 139.038 287.105 133.734C295.162 117.976 310.105 106.246 327.648 101.809L333.36 100.381L333.513 96.2504L333.666 92.1196L331.983 92.1706C331.065 92.2216 328.872 92.5275 327.138 92.9355Z" fill="#111111"/>
<path d="M351.974 96.4035V100.636L354.32 100.993C358.349 101.503 366.305 104.206 371.048 106.654C387.826 115.222 400.066 130.929 403.942 148.983L404.809 153.063L408.582 153.216C410.622 153.318 412.611 153.267 412.917 153.114C414.345 152.604 410.928 139.905 407.307 132.051C400.729 117.874 386.704 104.002 372.577 97.8314C365.591 94.7715 356.615 92.1196 353.198 92.1196C351.974 92.1196 351.974 92.2216 351.974 96.4035Z" fill="#111111"/>
<path d="M181.434 158.978C179.649 160.406 179.547 163.823 181.281 165.455L182.454 166.577H249.415H316.325L317.549 165.302C318.416 164.486 318.824 163.517 318.824 162.242C318.824 160.967 318.416 159.998 317.549 159.182L316.325 157.907H249.568H182.811L181.434 158.978Z" fill="#111111"/>
<path d="M368.089 158.978C367.018 159.845 366.763 160.457 366.763 162.293C366.763 163.874 367.069 164.843 367.783 165.557C368.803 166.577 369.466 166.577 435.866 166.577H502.98L504.204 165.302C505.784 163.772 505.886 161.069 504.509 159.386L503.541 158.162L436.478 158.009L369.466 157.907L368.089 158.978Z" fill="#111111"/>
<path d="M200.252 175.859C200.456 178.205 201.068 182.591 201.629 185.702C202.139 188.762 202.751 192.178 202.904 193.3L203.21 195.238L207.443 195.034C209.789 194.932 211.829 194.677 211.982 194.575C212.084 194.422 211.676 191.566 211.013 188.201C210.299 184.886 209.636 180.755 209.432 179.072C209.279 177.389 209.024 175.043 208.871 173.819L208.616 171.677H204.23H199.896L200.252 175.859Z" fill="#111111"/>
<path d="M272.211 173.564C274.098 184.07 278.586 195.086 284.298 203.143L285.777 205.234L288.174 203.551C289.5 202.582 291.183 201.562 291.999 201.256L293.427 200.746L291.897 198.808C287.409 193.046 283.023 183.254 281.391 175.196L280.728 171.932L276.291 171.779L271.854 171.626L272.211 173.564Z" fill="#111111"/>
<path d="M404.502 172.646C404.502 173.156 403.941 175.859 403.227 178.613C401.697 184.478 397.516 193.453 394.099 198.043L391.804 201.205L397.006 200.95C399.861 200.797 402.462 200.593 402.717 200.491C403.686 200.236 408.531 190.291 410.316 184.937C411.285 181.979 412.407 177.797 412.815 175.604L413.58 171.677H409.041C404.91 171.677 404.502 171.779 404.502 172.646Z" fill="#111111"/>
<path d="M476.716 172.289C476.563 172.646 476.359 174.584 476.206 176.573C475.798 181.264 474.115 190.903 472.942 195.238L471.973 198.604L474.166 200.185C475.39 201.001 476.869 202.531 477.532 203.5C478.195 204.52 478.858 205.336 479.011 205.336C479.368 205.336 480.898 199.981 482.479 193.096C483.397 189.016 484.621 181.315 485.335 174.584L485.641 171.677H481.255C478.195 171.677 476.818 171.881 476.716 172.289Z" fill="#111111"/>
<path d="M339.734 187.385L338.204 188.915V218.851C338.204 247.206 338.255 248.787 339.122 248.379C339.581 248.175 341.621 247.869 343.559 247.716L347.129 247.41V217.984C347.129 188.915 347.129 188.507 346.058 187.487C345.497 186.926 344.171 186.314 343.151 186.11C341.57 185.855 341.111 186.059 339.734 187.385Z" fill="#111111"/>
<path d="M220.398 195.392C218.868 197.228 214.891 197.738 199.489 198.197C182.915 198.656 177.101 199.216 170.012 201.052C160.985 203.296 155.528 206.611 153.284 211.252C151.703 214.465 151.754 218.035 153.386 220.279C154.508 221.86 157.517 223.186 159.863 223.186C161.648 223.186 165.83 221.452 165.83 220.738C165.83 220.483 165.269 219.769 164.555 219.106C163.841 218.443 163.127 217.168 162.974 216.199C162.005 210.946 167.819 207.274 179.702 205.642C182.456 205.285 184.801 205.081 184.903 205.183C185.056 205.336 184.801 206.407 184.393 207.529C180.059 219.667 176.234 252.459 177.56 266.279C178.121 272.399 178.886 274.235 181.691 276.122C183.22 277.193 183.883 277.295 187.402 277.142C189.544 276.989 191.431 276.785 191.584 276.683C191.686 276.53 191.329 274.949 190.768 273.164C186.892 260.67 187.351 234.558 191.89 210.028L192.961 204.316H201.529C206.272 204.316 210.505 204.163 211.015 203.959C211.831 203.653 211.882 204.163 211.576 211.507C211.423 215.842 210.76 223.492 210.148 228.541C208.669 240.882 208.414 266.177 209.791 269.186C210.964 271.838 212.8 272.858 216.369 272.909C217.95 272.909 219.429 272.756 219.582 272.603C219.786 272.45 219.531 270.155 219.072 267.503C218.511 264.597 218.154 259.854 218.154 255.57C218.103 248.736 218.154 248.328 219.48 245.778C221.01 242.973 226.467 237.21 227.079 237.822C227.232 238.077 227.691 239.352 227.997 240.78C228.915 244.503 232.23 251.235 235.545 256.233C239.523 262.149 246.765 269.39 250.895 271.583C255.128 273.776 256.964 273.521 260.075 270.308C262.931 267.299 262.829 266.483 259.616 265.004C250.436 260.874 241.155 251.541 236.004 241.188C234.27 237.72 232.791 233.538 233.199 233.232C233.301 233.13 237.432 230.224 242.328 226.756C252.068 219.973 254.822 217.78 257.168 215.332C259.208 213.139 260.84 209.671 260.483 208.192C260.024 206.407 258.239 204.367 256.046 203.296L254.108 202.276L252.323 204.877C247.632 211.813 240.696 218.8 231.363 225.838C228.558 227.929 224.529 231.295 222.438 233.283C220.347 235.272 218.562 236.802 218.46 236.751C218.358 236.649 218.664 231.754 219.174 225.889C219.633 220.075 220.041 212.476 220.092 209.059L220.143 202.837L221.826 202.531C225.6 201.817 226.62 198.656 223.917 196.106C222.132 194.423 221.316 194.27 220.398 195.392Z" fill="#111111"/>
<path d="M118.656 201.256C113.607 201.664 112.587 201.868 107.691 203.398C100.297 205.744 93.4118 210.997 90.8109 216.301C89.7909 218.442 89.5869 219.615 89.5869 223.44C89.5869 227.265 89.7909 228.387 90.8109 230.274C93.1058 234.609 97.6447 238.74 103.509 241.8L106.263 243.228L102.898 245.013C98.1547 247.512 95.2987 250.215 93.4628 253.886C89.0769 262.556 93.7178 271.022 104.937 274.898C117.432 279.284 132.477 276.53 141.146 268.319C143.339 266.279 143.9 265.412 143.9 264.137C143.9 261.944 142.727 261.077 141.248 262.148C137.219 265.106 132.987 267.605 130.029 268.778C119.115 273.113 105.294 270.257 101.572 262.913C100.297 260.414 100.246 256.283 101.521 253.478C102.643 250.98 106.059 247.971 109.068 246.849C111.21 246.033 111.567 246.033 115.239 246.9C117.585 247.461 121.155 247.869 124.113 247.869C128.652 247.92 129.111 247.818 130.386 246.645C132.273 244.86 131.967 242.718 129.621 241.29C128.091 240.423 126.969 240.27 122.226 240.27C119.166 240.27 115.647 240.474 114.474 240.678L112.332 241.137L108.303 237.108C103.662 232.467 101.623 228.846 101.215 224.307C100.501 216.25 105.6 209.875 115.086 207.07C117.279 206.407 119.88 206.152 124.266 206.152C134.109 206.152 139.769 208.192 145.073 213.598C148.235 216.862 149.714 217.168 150.326 214.72C152.213 207.223 135.282 200.032 118.656 201.256Z" fill="#111111"/>
<path d="M459.734 201.715C455.042 203.857 451.32 209.518 448.821 218.239C447.444 222.879 444.792 238.791 444.792 242.157C444.792 242.973 444.435 243.738 443.874 244.044C442.446 244.809 435.204 246.033 430.053 246.441L425.361 246.798L425.667 248.124C426.687 252.102 430.716 253.581 438.315 252.765C440.814 252.459 443.007 252.357 443.16 252.459C443.619 252.969 440.814 264.239 439.233 268.421L437.601 272.603L434.694 272.909C433.113 273.113 430.92 273.47 429.9 273.725C428.217 274.133 427.962 274.439 427.962 275.663C427.962 278.468 431.481 281.324 435 281.324C437.397 281.324 440.967 279.845 442.65 278.213L444.282 276.632L454.073 280.049C472.229 286.322 473.3 286.577 480.491 286.628C486.151 286.679 487.12 286.526 489.262 285.506C493.495 283.415 494.209 279.182 490.945 275.306L489.67 273.776L486.712 274.694C478.043 277.397 467.69 277.397 454.328 274.694C447.24 273.215 445.863 272.807 446.118 272.144C448.311 267.095 449.892 261.026 451.626 251.133C451.932 249.501 452.34 249.042 454.838 247.614C457.796 245.931 462.539 242.31 464.579 240.219C466.874 237.873 470.852 232.212 472.28 229.356C477.992 217.933 477.278 205.948 470.597 202.021C467.843 200.389 462.998 200.287 459.734 201.715ZM468.455 206.866C470.087 208.855 470.495 211.099 470.036 215.638C469.373 222.573 466.925 228.234 462.437 233.232C460.295 235.578 454.481 240.015 453.461 240.015C452.595 240.015 455.96 220.024 457.898 213.853C459.479 208.753 462.437 205.336 465.293 205.336C466.721 205.336 467.435 205.693 468.455 206.866Z" fill="#111111"/>
<path d="M462.181 223.492C460.754 226.194 459.581 228.693 459.581 228.999C459.632 229.815 461.468 227.367 462.844 224.715C463.966 222.574 465.343 218.596 464.935 218.596C464.833 218.596 463.609 220.789 462.181 223.492Z" fill="#111111"/>
<path d="M298.679 202.837C288.479 204.112 280.982 215.893 281.696 229.561C282.155 238.23 285.98 243.636 291.692 243.687C294.14 243.687 295.976 242.769 297.251 240.882C299.138 238.128 298.985 237.006 296.69 236.19C294.038 235.272 291.08 232.263 289.754 229.153C288.479 226.195 288.224 219.922 289.244 216.76C292.304 207.478 302.351 204.673 308.981 211.252C313.111 215.434 315.559 222.931 316.12 233.181C316.987 250.725 311.683 264.392 301.943 269.594C299.291 270.971 297.965 271.328 294.803 271.532C289.091 271.838 286.235 270.767 282.359 266.84C278.738 263.22 276.648 259.14 274.914 252.51C273.843 248.43 273.69 246.849 273.741 237.975C273.792 229.408 273.945 227.47 274.914 223.951C276.087 219.514 278.586 213.853 279.962 212.323C280.778 211.405 280.778 211.303 279.605 210.385C276.954 208.192 272.976 209.773 270.018 214.21C264.612 222.217 262.572 242.769 265.989 254.448C267.876 260.772 269.865 264.443 273.69 268.472C279.248 274.388 285.368 276.938 294.089 276.938C298.118 276.989 300.005 276.734 302.963 275.714C310.715 273.215 316.987 267.605 321.016 259.65C323.515 254.652 324.892 249.45 325.555 242.004C326.065 236.547 326.014 234.66 325.351 229.765C323.974 220.177 321.373 214.006 316.579 209.008C311.938 204.112 305.615 201.97 298.679 202.837Z" fill="#111111"/>
<path d="M585.649 203.041C574.174 205.132 562.904 211.15 563.822 214.669C564.332 216.76 565.505 216.709 568.36 214.567C571.012 212.578 575.041 210.385 577.285 209.671C578.356 209.365 578.407 209.416 577.999 210.283C575.806 214.363 572.44 226.449 570.298 237.72C567.901 250.521 567.493 254.804 567.442 266.789C567.442 277.958 567.442 278.009 568.819 280.967C570.043 283.517 570.553 284.078 572.593 284.996C574.582 285.863 575.602 285.965 578.356 285.71C580.141 285.557 581.824 285.251 582.028 285.047C582.232 284.792 581.977 283.262 581.416 281.63C580.855 279.947 579.886 275.459 579.325 271.685C578.458 265.718 578.356 263.117 578.56 253.275C578.968 237.312 580.804 226.041 584.884 215.026C586.618 210.385 586.669 210.13 585.904 208.753C585.139 207.427 585.139 207.325 585.955 206.968C586.414 206.764 590.035 206.611 593.962 206.611C600.693 206.611 601.254 206.713 604.161 208.039C609.873 210.691 612.27 214.108 612.219 219.616C612.219 224.205 610.74 227.112 605.997 231.906C600.591 237.261 598.246 238.587 593.554 238.689C588.964 238.791 586.924 239.862 587.179 241.953C587.434 244.248 589.372 244.911 593.605 244.095C595.594 243.738 598.806 243.534 600.897 243.687C608.7 244.197 612.627 248.175 612.525 255.416C612.474 261.179 609.924 265.514 605.232 267.809C600.336 270.206 596.002 270.104 587.128 267.248C585.955 266.891 585.904 266.942 586.21 268.88C586.669 271.583 589.627 274.337 593.248 275.459C596.41 276.377 603.09 276.53 606.66 275.714C611.76 274.592 616.707 271.226 618.951 267.35C622.521 261.128 621.501 252.714 616.35 246.747C614.31 244.299 608.547 241.239 605.13 240.729L602.784 240.372L607.323 238.23C618.135 233.079 623.949 226.296 624 218.851C624 210.997 616.911 205.132 604.977 203.041C599.775 202.123 590.698 202.123 585.649 203.041Z" fill="#111111"/>
<path d="M34.9164 203.347C32.4174 204.061 27.3686 209.059 24.0027 214.21C14.364 228.745 2.94034 258.681 0.543417 275.663C-0.578548 283.517 0.849408 285.659 8.09119 287.189C9.97813 287.597 11.7121 287.954 11.8651 287.954C12.0181 287.954 12.0691 285.812 11.9161 283.211C11.4061 272.807 16.1999 252.306 23.8497 232.467C26.5526 225.481 31.0915 216.454 33.2844 213.853C35.9363 210.64 38.7413 209.773 39.6082 211.864C40.2202 213.394 39.8632 227.113 38.7923 241.035C37.7723 254.754 37.8233 258.273 39.2002 263.729C41.5462 273.317 48.329 276.122 53.1228 269.543C54.8058 267.197 57.6617 260.058 62.5575 245.88C66.6374 234.15 67.6574 231.447 69.4933 227.674C71.2273 224.257 71.8902 223.696 72.8592 224.971C73.8792 226.399 73.6752 232.518 72.1962 247.767C70.3093 267.248 70.7173 274.49 74.0832 278.111C74.6952 278.723 75.7151 279.335 76.3781 279.488C78.0611 279.947 82.0389 278.927 83.8239 277.703C85.2008 276.683 85.2518 276.581 84.5379 275.51C83.1099 273.521 81.7329 270.104 81.172 267.146C80.611 264.137 79.54 244.707 79.897 244.095C80.305 243.432 80.254 221.401 79.897 219.871C79.183 217.117 77.1941 213.751 75.9191 213.037C74.1852 212.119 72.1962 212.68 70.4623 214.516C67.5044 217.678 64.9545 223.492 55.1628 249.45C52.3068 256.998 49.8589 263.321 49.7569 263.423C49.3489 263.882 48.9919 263.015 48.278 259.446C47.717 256.845 47.36 249.96 47.003 236.292C46.493 215.689 46.034 211.762 43.7901 207.427C41.9032 203.704 38.6393 202.225 34.9164 203.347Z" fill="#111111"/>
<path d="M503.692 203.5C500.989 204.673 500.785 205.285 501.703 208.906C502.621 212.476 502.57 213.547 500.836 232.365C498.797 254.091 499.715 264.749 504.202 272.45C505.936 275.459 509.608 278.519 512.362 279.284C515.524 280.151 520.012 279.743 523.021 278.264C528.682 275.459 535.515 267.401 540.309 258.017C541.788 255.111 543.063 252.765 543.216 252.765C543.369 252.765 543.573 254.55 543.675 256.691C543.828 261.332 544.848 267.095 545.97 269.747C547.704 273.929 552.702 274.796 557.751 271.787C558.72 271.226 558.72 271.175 557.649 269.237C554.691 263.933 552.906 254.805 552.549 242.565C552.141 230.274 553.212 221.503 556.272 210.793C557.241 207.529 557.445 206.101 557.037 205.693C556.731 205.387 555.15 205.03 553.518 204.928C550.764 204.724 550.356 204.826 548.877 206.152C547.041 207.886 546.327 210.64 545.001 221.401C543.318 235.17 541.584 241.545 537.045 251.184C526.54 273.317 512.77 279.029 509.557 262.556C508.384 256.793 509.149 241.137 511.291 227.01C513.892 209.722 513.688 204.928 510.271 203.347C508.588 202.582 505.579 202.684 503.692 203.5Z" fill="#111111"/>
<path d="M394.811 204.418C382.01 206.203 370.74 214.363 364.977 225.99C359.316 237.261 358.908 249.246 363.753 259.19C370.485 272.858 387.824 280.253 403.787 276.224C411.64 274.235 421.024 268.574 423.115 264.443C424.186 262.454 424.084 260.108 422.86 258.884C421.483 257.507 421.279 257.558 419.851 259.649C417.811 262.658 412.558 267.197 409.039 268.982C404.093 271.481 398.279 272.501 393.077 271.736C388.079 271.022 384.509 269.339 380.837 265.973C372.117 258.017 369.72 245.064 374.36 231.447C376.349 225.786 378.542 222.165 382.826 217.882C388.793 211.813 395.678 208.906 403.889 208.906C409.294 208.906 411.64 209.62 414.292 211.966C416.23 213.7 416.434 214.057 416.638 216.913C416.842 219.514 416.638 220.534 415.414 223.185C414.343 225.531 414.139 226.551 414.547 227.214C415.363 228.54 417.301 229.305 419.851 229.305C422.86 229.305 424.288 227.877 424.849 224.256C426.991 210.844 413.323 201.766 394.811 204.418Z" fill="#111111"/>
<path d="M296.998 214.924L295.825 215.842L296.998 216.862C300.466 219.973 309.39 225.633 309.951 225.072C310.869 224.154 307.401 217.372 305.004 215.332C303.066 213.7 298.885 213.496 296.998 214.924Z" fill="#111111"/>
<path d="M357.074 223.032C355.544 223.389 353.759 223.848 353.147 223.95C352.025 224.205 351.974 224.46 351.974 228.591V232.926L353.912 232.62C357.227 232.059 357.482 231.855 358.145 229.917C358.451 228.897 359.42 226.704 360.236 225.072C361.868 221.757 361.919 221.757 357.074 223.032Z" fill="#111111"/>
<path d="M329.178 223.9C329.331 224.257 329.688 226.245 330.045 228.387C330.657 232.263 331.116 232.824 333.258 232.875C333.462 232.875 333.615 230.937 333.615 228.54C333.615 223.747 333.972 224.257 329.892 223.441C329.28 223.339 329.025 223.492 329.178 223.9Z" fill="#111111"/>
<path d="M340.448 253.53C339.581 253.989 338.561 254.907 338.204 255.569C336.674 258.425 339.581 263.474 342.794 263.474C347.69 263.474 351.719 256.334 348.098 253.989C346.262 252.765 342.386 252.561 340.448 253.53Z" fill="#111111"/>
<path d="M436.019 258.323C435.968 258.578 433.622 260.771 430.919 263.219C428.165 265.616 425.921 267.86 425.921 268.115C425.921 268.421 426.176 268.472 426.482 268.319C426.788 268.115 428.675 267.656 430.664 267.35L434.336 266.738L435.407 263.678C436.886 259.547 437.243 257.864 436.682 257.864C436.427 257.864 436.121 258.068 436.019 258.323Z" fill="#111111"/>
<path d="M338.204 293.971C338.204 320.746 338.255 321.511 339.224 322.786C341.366 325.488 345.701 324.774 346.823 321.562C347.18 320.491 347.384 311.311 347.384 293.614V267.197L343.916 267.248C342.029 267.299 339.989 267.095 339.377 266.891L338.204 266.483V293.971Z" fill="#111111"/>
<path d="M420.821 272.399C417.863 274.643 393.945 286.22 388.182 288.209C377.574 291.881 367.527 294.176 357.685 295.196L351.922 295.808L352.075 300.142L352.228 304.477L354.778 304.375C356.206 304.273 359.725 303.865 362.683 303.457C382.215 300.652 399.656 294.533 416.18 284.588C425.054 279.284 424.646 279.641 423.881 277.805C423.575 276.938 423.116 275.102 422.912 273.674L422.606 271.073L420.821 272.399Z" fill="#111111"/>
<path d="M263.186 272.96C262.523 273.725 260.84 274.847 259.514 275.459L257.015 276.632L263.849 281.171C275.375 288.821 288.277 294.89 301.486 298.867C310.207 301.468 323.211 303.916 331.065 304.375L333.36 304.528V300.193V295.91L326.271 295.043C315.153 293.615 306.994 291.677 296.386 287.852C289.093 285.2 276.242 278.825 269.969 274.745C267.368 273.011 265.022 271.634 264.818 271.634C264.614 271.634 263.9 272.246 263.186 272.96Z" fill="#111111"/>
</svg>
